<?xml version="1.0" encoding="UTF-8"?>
<svg width="16" height="16" viewBox="0 0 16 16" xmlns="http://www.w3.org/2000/svg">
  <!-- Ear icon for VoiceNav menu bar -->
  <path d="M8 2C5.5 2 4 4 4 6.5C4 8 4.5 9.5 5.5 10.5C6 11 6.5 11.5 7 12C7.2 12.3 7.5 12.5 7.8 12.5C8.1 12.5 8.4 12.3 8.6 12C9.1 11.5 9.6 11 10.1 10.5C11.1 9.5 11.6 8 11.6 6.5C11.6 4 10.1 2 8 2ZM8 3C9.5 3 10.6 4.5 10.6 6.5C10.6 7.5 10.3 8.5 9.6 9.2C9.2 9.6 8.8 10 8.4 10.4C8.2 10.6 8.1 10.7 8 10.7C7.9 10.7 7.8 10.6 7.6 10.4C7.2 10 6.8 9.6 6.4 9.2C5.7 8.5 5.4 7.5 5.4 6.5C5.4 4.5 6.5 3 8 3Z" fill="currentColor"/>
  
  <!-- Inner ear detail -->
  <path d="M8 4.5C7 4.5 6.5 5.2 6.5 6C6.5 6.8 7 7.5 7.5 8C7.7 8.2 7.9 8.3 8 8.3C8.1 8.3 8.3 8.2 8.5 8C9 7.5 9.5 6.8 9.5 6C9.5 5.2 9 4.5 8 4.5Z" fill="currentColor" opacity="0.7"/>
</svg>
