<?xml version="1.0" encoding="UTF-8"?>
<svg width="16" height="16" viewBox="0 0 16 16" xmlns="http://www.w3.org/2000/svg">
  <!-- Processing ear icon with brain waves -->
  <path d="M8 2C5.5 2 4 4 4 6.5C4 8 4.5 9.5 5.5 10.5C6 11 6.5 11.5 7 12C7.2 12.3 7.5 12.5 7.8 12.5C8.1 12.5 8.4 12.3 8.6 12C9.1 11.5 9.6 11 10.1 10.5C11.1 9.5 11.6 8 11.6 6.5C11.6 4 10.1 2 8 2ZM8 3C9.5 3 10.6 4.5 10.6 6.5C10.6 7.5 10.3 8.5 9.6 9.2C9.2 9.6 8.8 10 8.4 10.4C8.2 10.6 8.1 10.7 8 10.7C7.9 10.7 7.8 10.6 7.6 10.4C7.2 10 6.8 9.6 6.4 9.2C5.7 8.5 5.4 7.5 5.4 6.5C5.4 4.5 6.5 3 8 3Z" fill="currentColor"/>
  
  <!-- Processing waves/pulses -->
  <path d="M1 6C1.3 6 1.5 6.2 1.5 6.5C1.5 6.8 1.3 7 1 7C0.7 7 0.5 6.8 0.5 6.5C0.5 6.2 0.7 6 1 6Z" fill="currentColor" opacity="0.8"/>
  <path d="M2.5 5C2.8 5 3 5.2 3 5.5C3 5.8 2.8 6 2.5 6C2.2 6 2 5.8 2 5.5C2 5.2 2.2 5 2.5 5Z" fill="currentColor" opacity="0.6"/>
  <path d="M2.5 8C2.8 8 3 8.2 3 8.5C3 8.8 2.8 9 2.5 9C2.2 9 2 8.8 2 8.5C2 8.2 2.2 8 2.5 8Z" fill="currentColor" opacity="0.6"/>
  
  <!-- Inner ear detail with processing indicator -->
  <circle cx="8" cy="6" r="1.5" fill="currentColor" opacity="0.7"/>
  <circle cx="8" cy="6" r="0.8" fill="none" stroke="currentColor" stroke-width="0.3" opacity="0.5"/>
</svg>
